# xmcd
#
# Track frame offsets:
#	150
#	16659
#	33796
#	53751
#	71872
#
# Disc length: 1283 seconds
# Revision: 1
# Processed by: cddbd v1.5.2PL0 Copyright (c) Steve Scherf et al.
# Submitted via: dBpowerAMP V12.0
#
DISCID=35050105
DTITLE=Renegade - Take Me Home
DYEAR=2011
DGENRE=Country
TTITLE0=Legless and Dateless
TTITLE1=Moondyne Joe
TTITLE2=Fly To You
TTITLE3=Take Me Home
TTITLE4=It Doesn't Matter
EXTD=
EXTT0=
EXTT1=
EXTT2=
EXTT3=
EXTT4=
PLAYORDER=
